
<svg width="10px" height="16px" viewBox="0 0 10 16" version="1.1" xmlns="http://www.w3.org/2000/svg" xmlns:xlink="http://www.w3.org/1999/xlink">
    <defs>
        <path d="M11.8395599,8.70710678 L11.3730028,9.17366391 C10.9827796,9.5638871 10.9824347,10.1964574 11.3722321,10.5871059 L16.7733333,16 L11.3722321,21.4128941 C10.9824347,21.8035426 10.9827796,22.4361129 11.3730028,22.8263361 L11.8395599,23.2928932 C12.2300842,23.6834175 12.8632492,23.6834175 13.2537734,23.2928932 L20.5466667,16 L13.2537734,8.70710678 C12.8632492,8.31658249 12.2300842,8.31658249 11.8395599,8.70710678 Z" id="path-1"></path>
    </defs>
    <g id="Service-onboarding" stroke="none" stroke-width="1" fill="none" fill-rule="evenodd">
        <g id="Content-/-User-flow-create" transform="translate(-644.000000, -1916.000000)">
            <rect fill="#FFFFFF" x="0" y="0" width="1440" height="3684"></rect>
            <g id="Content" transform="translate(519.000000, 386.000000)">
                <g id="Check-eligibility" transform="translate(0.000000, 1208.000000)">
                    <g id="Flow-/-Create-account" transform="translate(32.000000, 278.000000)">
                        <g id="Atoms-/-icons-/-System-/-Chevron_right-grey" transform="translate(82.000000, 36.000000)">
                            <mask id="mask-2" fill="white">
                                <use xlink:href="#path-1"></use>
                            </mask>
                            <use id="Mask" fill="#666666" fill-rule="evenodd" transform="translate(15.606667, 16.000000) scale(-1, 1) rotate(-180.000000) translate(-15.606667, -16.000000) " xlink:href="#path-1"></use>
                        </g>
                    </g>
                </g>
            </g>
        </g>
    </g>
</svg>
